<svg xmlns="http://www.w3.org/2000/svg" viewBox="0 0 640 430" width="640" height="430" role="img" aria-labelledby="t1 d1">
<title id="t1">The causal attention mask as a 6 by 6 grid</title><desc id="d1">Rows are query positions and columns are key positions for the sentence "The cat sat on the mat". Cells on or below the diagonal are filled, marking the positions a query is allowed to read. Cells above the diagonal are empty and are set to minus infinity before the softmax, so position 1 may read only itself while position 6 may read all six. Every row is normalised to sum to one after the softmax.</desc>
<rect width="640" height="430" fill="#f7f8fa" rx="6"/>
<text x="32" y="38" font-family="ui-sans-serif, -apple-system, Segoe UI, Helvetica, Arial, sans-serif" font-size="17" font-weight="600" fill="#22252a">Causal mask: what each query position is allowed to read</text>
<text x="32" y="60" font-family="ui-sans-serif, -apple-system, Segoe UI, Helvetica, Arial, sans-serif" font-size="12.5" fill="#5d636e">The mask is added to the scores before the softmax, which is why it is minus infinity and not zero.</text>
<text x="189" y="82" font-family="ui-sans-serif, -apple-system, Segoe UI, Helvetica, Arial, sans-serif" font-size="11.5" fill="#5d636e" text-anchor="middle">The</text>
<text x="231" y="82" font-family="ui-sans-serif, -apple-system, Segoe UI, Helvetica, Arial, sans-serif" font-size="11.5" fill="#5d636e" text-anchor="middle">cat</text>
<text x="273" y="82" font-family="ui-sans-serif, -apple-system, Segoe UI, Helvetica, Arial, sans-serif" font-size="11.5" fill="#5d636e" text-anchor="middle">sat</text>
<text x="315" y="82" font-family="ui-sans-serif, -apple-system, Segoe UI, Helvetica, Arial, sans-serif" font-size="11.5" fill="#5d636e" text-anchor="middle">on</text>
<text x="357" y="82" font-family="ui-sans-serif, -apple-system, Segoe UI, Helvetica, Arial, sans-serif" font-size="11.5" fill="#5d636e" text-anchor="middle">the</text>
<text x="399" y="82" font-family="ui-sans-serif, -apple-system, Segoe UI, Helvetica, Arial, sans-serif" font-size="11.5" fill="#5d636e" text-anchor="middle">mat</text>
<text x="156" y="117" font-family="ui-sans-serif, -apple-system, Segoe UI, Helvetica, Arial, sans-serif" font-size="11.5" fill="#5d636e" text-anchor="end">The</text>
<text x="156" y="159" font-family="ui-sans-serif, -apple-system, Segoe UI, Helvetica, Arial, sans-serif" font-size="11.5" fill="#5d636e" text-anchor="end">cat</text>
<text x="156" y="201" font-family="ui-sans-serif, -apple-system, Segoe UI, Helvetica, Arial, sans-serif" font-size="11.5" fill="#5d636e" text-anchor="end">sat</text>
<text x="156" y="243" font-family="ui-sans-serif, -apple-system, Segoe UI, Helvetica, Arial, sans-serif" font-size="11.5" fill="#5d636e" text-anchor="end">on</text>
<text x="156" y="285" font-family="ui-sans-serif, -apple-system, Segoe UI, Helvetica, Arial, sans-serif" font-size="11.5" fill="#5d636e" text-anchor="end">the</text>
<text x="156" y="327" font-family="ui-sans-serif, -apple-system, Segoe UI, Helvetica, Arial, sans-serif" font-size="11.5" fill="#5d636e" text-anchor="end">mat</text>
<rect x="168" y="92" width="40" height="40" fill="#3f6fb0" rx="2"/>
<rect x="210" y="92" width="40" height="40" fill="#e6e8ec" rx="2"/>
<text x="230" y="116" font-family="ui-sans-serif, -apple-system, Segoe UI, Helvetica, Arial, sans-serif" font-size="12" fill="#5d636e" text-anchor="middle">&#8722;&#8734;</text>
<rect x="252" y="92" width="40" height="40" fill="#e6e8ec" rx="2"/>
<text x="272" y="116" font-family="ui-sans-serif, -apple-system, Segoe UI, Helvetica, Arial, sans-serif" font-size="12" fill="#5d636e" text-anchor="middle">&#8722;&#8734;</text>
<rect x="294" y="92" width="40" height="40" fill="#e6e8ec" rx="2"/>
<text x="314" y="116" font-family="ui-sans-serif, -apple-system, Segoe UI, Helvetica, Arial, sans-serif" font-size="12" fill="#5d636e" text-anchor="middle">&#8722;&#8734;</text>
<rect x="336" y="92" width="40" height="40" fill="#e6e8ec" rx="2"/>
<text x="356" y="116" font-family="ui-sans-serif, -apple-system, Segoe UI, Helvetica, Arial, sans-serif" font-size="12" fill="#5d636e" text-anchor="middle">&#8722;&#8734;</text>
<rect x="378" y="92" width="40" height="40" fill="#e6e8ec" rx="2"/>
<text x="398" y="116" font-family="ui-sans-serif, -apple-system, Segoe UI, Helvetica, Arial, sans-serif" font-size="12" fill="#5d636e" text-anchor="middle">&#8722;&#8734;</text>
<rect x="168" y="134" width="40" height="40" fill="#3f6fb0" rx="2"/>
<rect x="210" y="134" width="40" height="40" fill="#3f6fb0" rx="2"/>
<rect x="252" y="134" width="40" height="40" fill="#e6e8ec" rx="2"/>
<text x="272" y="158" font-family="ui-sans-serif, -apple-system, Segoe UI, Helvetica, Arial, sans-serif" font-size="12" fill="#5d636e" text-anchor="middle">&#8722;&#8734;</text>
<rect x="294" y="134" width="40" height="40" fill="#e6e8ec" rx="2"/>
<text x="314" y="158" font-family="ui-sans-serif, -apple-system, Segoe UI, Helvetica, Arial, sans-serif" font-size="12" fill="#5d636e" text-anchor="middle">&#8722;&#8734;</text>
<rect x="336" y="134" width="40" height="40" fill="#e6e8ec" rx="2"/>
<text x="356" y="158" font-family="ui-sans-serif, -apple-system, Segoe UI, Helvetica, Arial, sans-serif" font-size="12" fill="#5d636e" text-anchor="middle">&#8722;&#8734;</text>
<rect x="378" y="134" width="40" height="40" fill="#e6e8ec" rx="2"/>
<text x="398" y="158" font-family="ui-sans-serif, -apple-system, Segoe UI, Helvetica, Arial, sans-serif" font-size="12" fill="#5d636e" text-anchor="middle">&#8722;&#8734;</text>
<rect x="168" y="176" width="40" height="40" fill="#3f6fb0" rx="2"/>
<rect x="210" y="176" width="40" height="40" fill="#3f6fb0" rx="2"/>
<rect x="252" y="176" width="40" height="40" fill="#3f6fb0" rx="2"/>
<rect x="294" y="176" width="40" height="40" fill="#e6e8ec" rx="2"/>
<text x="314" y="200" font-family="ui-sans-serif, -apple-system, Segoe UI, Helvetica, Arial, sans-serif" font-size="12" fill="#5d636e" text-anchor="middle">&#8722;&#8734;</text>
<rect x="336" y="176" width="40" height="40" fill="#e6e8ec" rx="2"/>
<text x="356" y="200" font-family="ui-sans-serif, -apple-system, Segoe UI, Helvetica, Arial, sans-serif" font-size="12" fill="#5d636e" text-anchor="middle">&#8722;&#8734;</text>
<rect x="378" y="176" width="40" height="40" fill="#e6e8ec" rx="2"/>
<text x="398" y="200" font-family="ui-sans-serif, -apple-system, Segoe UI, Helvetica, Arial, sans-serif" font-size="12" fill="#5d636e" text-anchor="middle">&#8722;&#8734;</text>
<rect x="168" y="218" width="40" height="40" fill="#3f6fb0" rx="2"/>
<rect x="210" y="218" width="40" height="40" fill="#3f6fb0" rx="2"/>
<rect x="252" y="218" width="40" height="40" fill="#3f6fb0" rx="2"/>
<rect x="294" y="218" width="40" height="40" fill="#3f6fb0" rx="2"/>
<rect x="336" y="218" width="40" height="40" fill="#e6e8ec" rx="2"/>
<text x="356" y="242" font-family="ui-sans-serif, -apple-system, Segoe UI, Helvetica, Arial, sans-serif" font-size="12" fill="#5d636e" text-anchor="middle">&#8722;&#8734;</text>
<rect x="378" y="218" width="40" height="40" fill="#e6e8ec" rx="2"/>
<text x="398" y="242" font-family="ui-sans-serif, -apple-system, Segoe UI, Helvetica, Arial, sans-serif" font-size="12" fill="#5d636e" text-anchor="middle">&#8722;&#8734;</text>
<rect x="168" y="260" width="40" height="40" fill="#3f6fb0" rx="2"/>
<rect x="210" y="260" width="40" height="40" fill="#3f6fb0" rx="2"/>
<rect x="252" y="260" width="40" height="40" fill="#3f6fb0" rx="2"/>
<rect x="294" y="260" width="40" height="40" fill="#3f6fb0" rx="2"/>
<rect x="336" y="260" width="40" height="40" fill="#3f6fb0" rx="2"/>
<rect x="378" y="260" width="40" height="40" fill="#e6e8ec" rx="2"/>
<text x="398" y="284" font-family="ui-sans-serif, -apple-system, Segoe UI, Helvetica, Arial, sans-serif" font-size="12" fill="#5d636e" text-anchor="middle">&#8722;&#8734;</text>
<rect x="168" y="302" width="40" height="40" fill="#3f6fb0" rx="2"/>
<rect x="210" y="302" width="40" height="40" fill="#3f6fb0" rx="2"/>
<rect x="252" y="302" width="40" height="40" fill="#3f6fb0" rx="2"/>
<rect x="294" y="302" width="40" height="40" fill="#3f6fb0" rx="2"/>
<rect x="336" y="302" width="40" height="40" fill="#3f6fb0" rx="2"/>
<rect x="378" y="302" width="40" height="40" fill="#3f6fb0" rx="2"/>
<text x="294" y="370" font-family="ui-sans-serif, -apple-system, Segoe UI, Helvetica, Arial, sans-serif" font-size="12.5" fill="#22252a" text-anchor="middle">key position j &#8212; what is being read</text>
<text transform="translate(60 218) rotate(-90)" font-family="ui-sans-serif, -apple-system, Segoe UI, Helvetica, Arial, sans-serif" font-size="12.5" fill="#22252a" text-anchor="middle">query position i &#8212; who is reading</text>
<path d="M 432 113 L 464 113" stroke="#b0532c" stroke-width="1.4" fill="none"/>
<text x="470" y="111" font-family="ui-sans-serif, -apple-system, Segoe UI, Helvetica, Arial, sans-serif" font-size="11.5" fill="#b0532c">one cell open,</text>
<text x="470" y="125" font-family="ui-sans-serif, -apple-system, Segoe UI, Helvetica, Arial, sans-serif" font-size="11.5" fill="#b0532c">so weight 1.0</text>
<path d="M 432 323 L 464 323" stroke="#b0532c" stroke-width="1.4" fill="none"/>
<text x="470" y="327" font-family="ui-sans-serif, -apple-system, Segoe UI, Helvetica, Arial, sans-serif" font-size="11.5" fill="#b0532c">all six open</text>
<rect x="168" y="390" width="13" height="13" fill="#3f6fb0" rx="2"/>
<text x="188" y="400" font-family="ui-sans-serif, -apple-system, Segoe UI, Helvetica, Arial, sans-serif" font-size="12" fill="#22252a">readable; row is normalised to sum to 1</text>
<rect x="430" y="390" width="13" height="13" fill="#e6e8ec" rx="2"/>
<text x="450" y="400" font-family="ui-sans-serif, -apple-system, Segoe UI, Helvetica, Arial, sans-serif" font-size="12" fill="#22252a">masked, so softmax gives it 0</text>
<rect x="0.5" y="0.5" width="639" height="429" fill="none" stroke="#c6cad2" rx="6"/>
</svg>
